<svg xmlns="http://www.w3.org/2000/svg" width="51.058" height="60" viewBox="0 0 51.058 60">
  <path id="bag" d="M30.466,3A11.584,11.584,0,0,0,18.928,14.538v2.308H7.534L7.389,19.01,5.082,60.548,4.938,63H56l-.144-2.452L53.543,19.01,53.4,16.846H42V14.538A11.584,11.584,0,0,0,30.466,3Zm0,4.615a6.925,6.925,0,0,1,6.923,6.923v2.308H23.543V14.538A6.925,6.925,0,0,1,30.466,7.615ZM11.861,21.462h7.067v6.923h4.615V21.462H37.389v6.923H42V21.462h7.067l2.019,36.923H9.841Z" transform="translate(-4.938 -3)" fill="#4b7fd9"/>
</svg>
