<svg xmlns="http://www.w3.org/2000/svg" width="64.258" height="90.002" viewBox="0 0 64.258 90.002">
  <g id="clicking" transform="translate(0)">
    <path id="패스_143" data-name="패스 143" d="M38.848,23.869A2.637,2.637,0,0,0,41,20.822a13.274,13.274,0,1,1,26.16-.032,2.637,2.637,0,0,0,5.2.884,18.548,18.548,0,1,0-36.556.045A2.637,2.637,0,0,0,38.848,23.869Zm0,0" transform="translate(-29.281)" fill="#fff"/>
    <path id="패스_144" data-name="패스 144" d="M52.852,92.576a7.907,7.907,0,0,0-10.547-3.516,7.906,7.906,0,0,0-9.639-3.9V69.017A8.03,8.03,0,0,0,24.956,61a7.916,7.916,0,0,0-8.148,7.908v40.621l-3.1-3.244a8.02,8.02,0,0,0-11.1-.487,7.9,7.9,0,0,0-.428,11.324l17.8,18.988a13.234,13.234,0,0,0,9.618,4.166H51.075a13.2,13.2,0,0,0,13.184-13.184V99.67A7.917,7.917,0,0,0,52.852,92.576Zm6.133,34.516a7.919,7.919,0,0,1-7.91,7.91H29.6a7.938,7.938,0,0,1-5.771-2.5L6.006,113.49a2.636,2.636,0,0,1,.141-3.78,2.713,2.713,0,0,1,3.748.217l7.641,8a2.639,2.639,0,0,0,4.544-1.82v-47.2a2.646,2.646,0,0,1,2.732-2.636,2.721,2.721,0,0,1,2.581,2.745c0,29.014-.049,15.863-.049,31.532a2.662,2.662,0,0,0,5.323,0V92.138a2.636,2.636,0,0,1,5.224.5v7.91a2.637,2.637,0,1,0,5.274,0V96.155a2.637,2.637,0,0,1,5.274,0v4.395a2.637,2.637,0,1,0,5.274,0V99.67a2.637,2.637,0,0,1,5.274,0Zm0,0" transform="translate(0 -50.275)" fill="#fff"/>
  </g>
</svg>
