<svg xmlns="http://www.w3.org/2000/svg" width="75" height="60" viewBox="0 0 75 60">
  <path id="shop" d="M8.5,4v9.141l-7.5,10V24a7.54,7.54,0,0,0,7.5,7.5V64h40V41.5h5V64h15V31.5A7.54,7.54,0,0,0,76,24v-.859l-7.5-10V4Zm5,5h50v2.5h-50Zm-1.25,7.5h52.5l6.016,8.047A2.383,2.383,0,0,1,68.5,26.5,2.492,2.492,0,0,1,66,24H61a2.5,2.5,0,0,1-5,0H51a2.5,2.5,0,0,1-5,0H41a2.5,2.5,0,1,1-5,0H31a2.5,2.5,0,0,1-5,0H21a2.5,2.5,0,0,1-5,0H11a2.492,2.492,0,0,1-2.5,2.5,2.383,2.383,0,0,1-2.266-1.953ZM13.5,29.547a7.377,7.377,0,0,0,10,0,7.377,7.377,0,0,0,10,0,7.377,7.377,0,0,0,10,0,7.377,7.377,0,0,0,10,0,7.377,7.377,0,0,0,10,0V59h-5V36.5h-15V59h-30Zm5,6.953V54h20V36.5Zm5,5h10V49h-10Z" transform="translate(-1 -4)" fill="#4b7fd9"/>
</svg>
